<svg width="33" height="34" viewBox="0 0 33 34" fill="none" xmlns="http://www.w3.org/2000/svg">
<path d="M16.5 4.5C13.1859 4.50373 10.0087 5.82188 7.66528 8.16528C5.32188 10.5087 4.00373 13.6859 4 17C4.00563 20.3135 5.3244 23.4896 7.66739 25.8326C10.0104 28.1756 13.1865 29.4944 16.5 29.5C19.8152 29.5 22.9946 28.183 25.3388 25.8388C27.683 23.4946 29 20.3152 29 17C29 13.6848 27.683 10.5054 25.3388 8.16117C22.9946 5.81696 19.8152 4.5 16.5 4.5ZM24.1031 24.2128C23.401 22.7969 22.3172 21.6054 20.974 20.7727C19.6308 19.9399 18.0816 19.4991 16.5012 19.5C14.9208 19.5009 13.372 19.9433 12.0297 20.7775C10.6874 21.6117 9.60491 22.8044 8.90436 24.2211C7.03509 22.2826 5.99348 19.6929 6 17C6 14.2152 7.10625 11.5445 9.07538 9.57538C11.0445 7.60625 13.7152 6.5 16.5 6.5C19.2848 6.5 21.9555 7.60625 23.9246 9.57538C25.8938 11.5445 27 14.2152 27 17C27.0062 19.689 25.9675 22.2752 24.1031 24.2128ZM16.5 9.5C15.61 9.5 14.74 9.76392 13.9999 10.2584C13.2599 10.7529 12.6831 11.4557 12.3425 12.2779C12.0019 13.1002 11.9128 14.005 12.0865 14.8779C12.2601 15.7508 12.6887 16.5526 13.318 17.182C13.9474 17.8113 14.7492 18.2399 15.6221 18.4135C16.495 18.5872 17.3998 18.4981 18.2221 18.1575C19.0443 17.8169 19.7471 17.2401 20.2416 16.5001C20.7361 15.76 21 14.89 21 14C21 13.4091 20.8836 12.8239 20.6575 12.2779C20.4313 11.732 20.0998 11.2359 19.682 10.818C19.2641 10.4002 18.768 10.0687 18.2221 9.84254C17.6761 9.6164 17.0909 9.5 16.5 9.5Z" fill="#DADADA"/>
</svg>
